<mxfile host="65bd71144e">
    <diagram id="4thmc2dWGaADM1eNNeAS" name="Page-1">
        <mxGraphModel dx="462" dy="209" grid="1" gridSize="10" guides="1" tooltips="1" connect="1" arrows="1" fold="1" page="1" pageScale="1" pageWidth="1920" pageHeight="1200" math="0" shadow="0">
            <root>
                <mxCell id="0"/>
                <mxCell id="1" parent="0"/>
                <mxCell id="2" value="Ball" style="swimlane;fontStyle=1;align=center;verticalAlign=top;childLayout=stackLayout;horizontal=1;startSize=26;horizontalStack=0;resizeParent=1;resizeParentMax=0;resizeLast=0;collapsible=1;marginBottom=0;strokeColor=default;" parent="1" vertex="1">
                    <mxGeometry x="80" y="100" width="310" height="200" as="geometry"/>
                </mxCell>
                <mxCell id="3" value="+ color : tuple&#10;+ size : float&#10;+ x : float&#10;+ y : float&#10;+ vx : int&#10;+ vy : int&#10;+ mass : float" style="text;strokeColor=none;fillColor=none;align=left;verticalAlign=top;spacingLeft=4;spacingRight=4;overflow=hidden;rotatable=0;points=[[0,0.5],[1,0.5]];portConstraint=eastwest;" parent="2" vertex="1">
                    <mxGeometry y="26" width="310" height="114" as="geometry"/>
                </mxCell>
                <mxCell id="4" value="" style="line;strokeWidth=1;fillColor=none;align=left;verticalAlign=middle;spacingTop=-1;spacingLeft=3;spacingRight=3;rotatable=0;labelPosition=right;points=[];portConstraint=eastwest;strokeColor=inherit;" parent="2" vertex="1">
                    <mxGeometry y="140" width="310" height="8" as="geometry"/>
                </mxCell>
                <mxCell id="5" value="+ draw_ball()&#10;+ move_ball(int) : int&#10;+ update_ball_velocity(int,int)" style="text;strokeColor=none;fillColor=none;align=left;verticalAlign=top;spacingLeft=4;spacingRight=4;overflow=hidden;rotatable=0;points=[[0,0.5],[1,0.5]];portConstraint=eastwest;" parent="2" vertex="1">
                    <mxGeometry y="148" width="310" height="52" as="geometry"/>
                </mxCell>
                <mxCell id="6" value="balldb" style="swimlane;fontStyle=1;align=center;verticalAlign=top;childLayout=stackLayout;horizontal=1;startSize=26;horizontalStack=0;resizeParent=1;resizeParentMax=0;resizeLast=0;collapsible=1;marginBottom=0;strokeColor=default;" parent="1" vertex="1">
                    <mxGeometry x="520" y="100" width="160" height="100" as="geometry"/>
                </mxCell>
                <mxCell id="7" value="+ ball : list&#10;+ border : border" style="text;strokeColor=none;fillColor=none;align=left;verticalAlign=top;spacingLeft=4;spacingRight=4;overflow=hidden;rotatable=0;points=[[0,0.5],[1,0.5]];portConstraint=eastwest;" parent="6" vertex="1">
                    <mxGeometry y="26" width="160" height="44" as="geometry"/>
                </mxCell>
                <mxCell id="8" value="" style="line;strokeWidth=1;fillColor=none;align=left;verticalAlign=middle;spacingTop=-1;spacingLeft=3;spacingRight=3;rotatable=0;labelPosition=right;points=[];portConstraint=eastwest;strokeColor=inherit;" parent="6" vertex="1">
                    <mxGeometry y="70" width="160" height="8" as="geometry"/>
                </mxCell>
                <mxCell id="9" value="+ create(int)" style="text;strokeColor=none;fillColor=none;align=left;verticalAlign=top;spacingLeft=4;spacingRight=4;overflow=hidden;rotatable=0;points=[[0,0.5],[1,0.5]];portConstraint=eastwest;" parent="6" vertex="1">
                    <mxGeometry y="78" width="160" height="22" as="geometry"/>
                </mxCell>
                <mxCell id="10" value="border" style="swimlane;fontStyle=1;align=center;verticalAlign=top;childLayout=stackLayout;horizontal=1;startSize=26;horizontalStack=0;resizeParent=1;resizeParentMax=0;resizeLast=0;collapsible=1;marginBottom=0;strokeColor=default;" parent="1" vertex="1">
                    <mxGeometry x="515" y="290" width="165" height="100" as="geometry"/>
                </mxCell>
                <mxCell id="11" value="+ canvas_width : int&#10;+ canvas_height : int" style="text;strokeColor=none;fillColor=none;align=left;verticalAlign=top;spacingLeft=4;spacingRight=4;overflow=hidden;rotatable=0;points=[[0,0.5],[1,0.5]];portConstraint=eastwest;" parent="10" vertex="1">
                    <mxGeometry y="26" width="165" height="34" as="geometry"/>
                </mxCell>
                <mxCell id="12" value="" style="line;strokeWidth=1;fillColor=none;align=left;verticalAlign=middle;spacingTop=-1;spacingLeft=3;spacingRight=3;rotatable=0;labelPosition=right;points=[];portConstraint=eastwest;strokeColor=inherit;" parent="10" vertex="1">
                    <mxGeometry y="60" width="165" height="8" as="geometry"/>
                </mxCell>
                <mxCell id="13" value="+ draw_border()" style="text;strokeColor=none;fillColor=none;align=left;verticalAlign=top;spacingLeft=4;spacingRight=4;overflow=hidden;rotatable=0;points=[[0,0.5],[1,0.5]];portConstraint=eastwest;" parent="10" vertex="1">
                    <mxGeometry y="68" width="165" height="32" as="geometry"/>
                </mxCell>
                <mxCell id="14" value="run" style="swimlane;fontStyle=1;align=center;verticalAlign=top;childLayout=stackLayout;horizontal=1;startSize=26;horizontalStack=0;resizeParent=1;resizeParentMax=0;resizeLast=0;collapsible=1;marginBottom=0;strokeColor=default;" parent="1" vertex="1">
                    <mxGeometry x="840" y="110" width="160" height="136" as="geometry"/>
                </mxCell>
                <mxCell id="15" value="+ num : int&#10;+ ballset : balldb&#10;+ dt : float&#10;+border : border&#10;+digit : Num" style="text;strokeColor=none;fillColor=none;align=left;verticalAlign=top;spacingLeft=4;spacingRight=4;overflow=hidden;rotatable=0;points=[[0,0.5],[1,0.5]];portConstraint=eastwest;" parent="14" vertex="1">
                    <mxGeometry y="26" width="160" height="74" as="geometry"/>
                </mxCell>
                <mxCell id="16" value="" style="line;strokeWidth=1;fillColor=none;align=left;verticalAlign=middle;spacingTop=-1;spacingLeft=3;spacingRight=3;rotatable=0;labelPosition=right;points=[];portConstraint=eastwest;strokeColor=inherit;" parent="14" vertex="1">
                    <mxGeometry y="100" width="160" height="10" as="geometry"/>
                </mxCell>
                <mxCell id="17" value="+ run()" style="text;strokeColor=none;fillColor=none;align=left;verticalAlign=top;spacingLeft=4;spacingRight=4;overflow=hidden;rotatable=0;points=[[0,0.5],[1,0.5]];portConstraint=eastwest;" parent="14" vertex="1">
                    <mxGeometry y="110" width="160" height="26" as="geometry"/>
                </mxCell>
                <mxCell id="18" value="Num" style="swimlane;fontStyle=1;align=center;verticalAlign=top;childLayout=stackLayout;horizontal=1;startSize=26;horizontalStack=0;resizeParent=1;resizeParentMax=0;resizeLast=0;collapsible=1;marginBottom=0;strokeColor=default;" parent="1" vertex="1">
                    <mxGeometry x="1120" y="100" width="160" height="110" as="geometry"/>
                </mxCell>
                <mxCell id="19" value="+ pensize : int&#10;+ color : tuple&#10;+ delay : 0.2" style="text;strokeColor=none;fillColor=none;align=left;verticalAlign=top;spacingLeft=4;spacingRight=4;overflow=hidden;rotatable=0;points=[[0,0.5],[1,0.5]];portConstraint=eastwest;" parent="18" vertex="1">
                    <mxGeometry y="26" width="160" height="44" as="geometry"/>
                </mxCell>
                <mxCell id="20" value="" style="line;strokeWidth=1;fillColor=none;align=left;verticalAlign=middle;spacingTop=-1;spacingLeft=3;spacingRight=3;rotatable=0;labelPosition=right;points=[];portConstraint=eastwest;strokeColor=inherit;" parent="18" vertex="1">
                    <mxGeometry y="70" width="160" height="10" as="geometry"/>
                </mxCell>
                <mxCell id="21" value="+ draw(int)" style="text;strokeColor=none;fillColor=none;align=left;verticalAlign=top;spacingLeft=4;spacingRight=4;overflow=hidden;rotatable=0;points=[[0,0.5],[1,0.5]];portConstraint=eastwest;" parent="18" vertex="1">
                    <mxGeometry y="80" width="160" height="30" as="geometry"/>
                </mxCell>
                <mxCell id="22" value="" style="endArrow=diamond;html=1;exitX=1;exitY=0.5;exitDx=0;exitDy=0;entryX=0;entryY=0.5;entryDx=0;entryDy=0;startArrow=none;startFill=0;endFill=1;" edge="1" parent="1" source="3" target="7">
                    <mxGeometry width="50" height="50" relative="1" as="geometry">
                        <mxPoint x="440" y="240" as="sourcePoint"/>
                        <mxPoint x="520" y="180" as="targetPoint"/>
                        <Array as="points">
                            <mxPoint x="460" y="183"/>
                            <mxPoint x="460" y="148"/>
                        </Array>
                    </mxGeometry>
                </mxCell>
                <mxCell id="23" value="1....N" style="text;html=1;align=center;verticalAlign=middle;resizable=0;points=[];autosize=1;strokeColor=none;fillColor=none;" vertex="1" parent="1">
                    <mxGeometry x="385" y="185" width="50" height="30" as="geometry"/>
                </mxCell>
                <mxCell id="25" value="1" style="text;html=1;align=center;verticalAlign=middle;resizable=0;points=[];autosize=1;strokeColor=none;fillColor=none;" vertex="1" parent="1">
                    <mxGeometry x="485" y="115" width="30" height="30" as="geometry"/>
                </mxCell>
                <mxCell id="26" value="" style="endArrow=diamond;html=1;exitX=1;exitY=0.5;exitDx=0;exitDy=0;entryX=0;entryY=0.5;entryDx=0;entryDy=0;endFill=1;" edge="1" parent="1" source="7" target="15">
                    <mxGeometry width="50" height="50" relative="1" as="geometry">
                        <mxPoint x="710" y="200" as="sourcePoint"/>
                        <mxPoint x="760" y="150" as="targetPoint"/>
                        <Array as="points">
                            <mxPoint x="760" y="148"/>
                            <mxPoint x="760" y="173"/>
                        </Array>
                    </mxGeometry>
                </mxCell>
                <mxCell id="27" value="2" style="text;html=1;align=center;verticalAlign=middle;resizable=0;points=[];autosize=1;strokeColor=none;fillColor=none;" vertex="1" parent="1">
                    <mxGeometry x="690" y="115" width="30" height="30" as="geometry"/>
                </mxCell>
                <mxCell id="28" value="2" style="text;html=1;align=center;verticalAlign=middle;resizable=0;points=[];autosize=1;strokeColor=none;fillColor=none;" vertex="1" parent="1">
                    <mxGeometry x="800" y="135" width="30" height="30" as="geometry"/>
                </mxCell>
                <mxCell id="29" value="" style="endArrow=diamond;html=1;exitX=0.5;exitY=0;exitDx=0;exitDy=0;entryX=0.482;entryY=1.039;entryDx=0;entryDy=0;entryPerimeter=0;endFill=1;" edge="1" parent="1" source="10" target="9">
                    <mxGeometry width="50" height="50" relative="1" as="geometry">
                        <mxPoint x="600" y="290" as="sourcePoint"/>
                        <mxPoint x="600" y="200" as="targetPoint"/>
                    </mxGeometry>
                </mxCell>
                <mxCell id="30" value="1" style="text;html=1;align=center;verticalAlign=middle;resizable=0;points=[];autosize=1;strokeColor=none;fillColor=none;" vertex="1" parent="1">
                    <mxGeometry x="600" y="200" width="30" height="30" as="geometry"/>
                </mxCell>
                <mxCell id="31" value="2" style="text;html=1;align=center;verticalAlign=middle;resizable=0;points=[];autosize=1;strokeColor=none;fillColor=none;" vertex="1" parent="1">
                    <mxGeometry x="600" y="260" width="30" height="30" as="geometry"/>
                </mxCell>
                <mxCell id="32" value="" style="endArrow=none;html=1;exitX=1;exitY=0.5;exitDx=0;exitDy=0;entryX=0;entryY=0.5;entryDx=0;entryDy=0;" edge="1" parent="1" source="15" target="19">
                    <mxGeometry width="50" height="50" relative="1" as="geometry">
                        <mxPoint x="1040" y="190" as="sourcePoint"/>
                        <mxPoint x="1090" y="140" as="targetPoint"/>
                        <Array as="points">
                            <mxPoint x="1060" y="170"/>
                            <mxPoint x="1060" y="150"/>
                        </Array>
                    </mxGeometry>
                </mxCell>
                <mxCell id="33" value="1...N" style="text;html=1;align=center;verticalAlign=middle;resizable=0;points=[];autosize=1;strokeColor=none;fillColor=none;" vertex="1" parent="1">
                    <mxGeometry x="1070" y="125" width="50" height="30" as="geometry"/>
                </mxCell>
                <mxCell id="34" value="1" style="text;html=1;align=center;verticalAlign=middle;resizable=0;points=[];autosize=1;strokeColor=none;fillColor=none;" vertex="1" parent="1">
                    <mxGeometry x="1005" y="145" width="30" height="30" as="geometry"/>
                </mxCell>
            </root>
        </mxGraphModel>
    </diagram>
</mxfile>